<?xml version="1.0" encoding="utf-8"?>
<!-- Svg Vector Icons : http://www.onlinewebfonts.com/icon -->
<!DOCTYPE svg PUBLIC "-//W3C//DTD SVG 1.1//EN" "http://www.w3.org/Graphics/SVG/1.1/DTD/svg11.dtd">
<svg version="1.1" xmlns="http://www.w3.org/2000/svg" xmlns:xlink="http://www.w3.org/1999/xlink" x="0px" y="0px" viewBox="0 0 1000 1000" enable-background="new 0 0 1000 1000" xml:space="preserve">
<metadata> Svg Vector Icons : http://www.onlinewebfonts.com/icon </metadata>
<g><g transform="translate(0.000000,511.000000) scale(0.100000,-0.100000)"><path d="M2133.8,4701c-190.3-67.8-361.3-190.4-474.3-338.8C1504.6,4152.5,175.3,1835.8,133.4,1693.9c-58.1-187.1-38.7-490.4,45.2-684c38.7-80.7,161.3-245.2,277.5-371l213-225.9L562.5,309.7c-396.9-387.2-384-1071.2,32.3-1455.2c293.6-267.8,312.9-274.3,1474.5-283.9l1026.1-9.7l-290.4-303.3c-451.7-474.3-648.5-932.4-648.5-1516.5c0-342,54.9-587.2,209.7-909.9c171-364.6,396.9-458.2,648.5-271c200,145.2,3629.8,3610.4,3800.8,3836.3l151.6,200h177.5h174.2v-258.1v-258.1h1290.6H9900v2581.2v2581.2H8609.4H7318.8v-258.1v-258.1h-374.3h-374.3l-222.6,203.3c-367.8,335.6-835.7,580.8-1410,738.9c-229.1,64.5-345.2,71-1442.3,80.7C2404.8,4759.1,2288.7,4755.8,2133.8,4701z M4673.1,4197.7c519.5-93.6,971.2-332.3,1468.1-780.8l232.3-206.5h474.3h471.1V1661.6V112.9h-319.4H6680l-138.7-216.2c-100-161.3-626-709.8-1929.4-2019.8l-1794-1800.4l-61.3,138.7c-90.4,200.1-109.7,693.7-35.5,948.6c87.1,312.9,193.6,454.9,745.3,1016.3c461.4,467.9,529.1,548.5,529.1,638.8c0,67.7-29,132.3-80.7,180.7l-77.4,80.7H2521c-1213.1,0-1326.1,6.5-1448.7,61.3c-177.5,80.7-277.5,248.5-277.5,458.2c0,200,77.4,322.6,316.2,496.9c174.2,122.6,229.1,219.4,209.7,354.9c-3.2,35.5-142,203.3-309.8,371c-164.5,167.8-322.7,351.7-351.7,409.8c-106.5,212.9-93.6,242,661.4,1542.3c390.4,674.3,742.1,1261.6,780.8,1303.5c145.2,154.9,196.8,161.3,1297.1,161.3C4124.6,4239.6,4502.1,4226.7,4673.1,4197.7z M9383.8,1661.6v-2065h-774.4H7835v2065v2065h774.4h774.4V1661.6z"/><path d="M8351.3,371V112.9h258.1h258.1V371v258.1h-258.1h-258.1V371z"/></g></g>
</svg>