<?xml version="1.0" encoding="iso-8859-1"?>
<!-- Uploaded to: SVG Repo, www.svgrepo.com, Generator: SVG Repo Mixer Tools -->
<svg fill="#000000" height="800px" width="800px" version="1.1" id="Layer_1" xmlns="http://www.w3.org/2000/svg" xmlns:xlink="http://www.w3.org/1999/xlink" 
	 viewBox="0 0 512 512" xml:space="preserve">
<g>
	<g>
		<path d="M428,0H84C72.972,0,64,8.972,64,20v448c0,11.028,8.972,20,20,20h344c11.028,0,20-8.972,20-20V20
			C448,8.972,439.028,0,428,0z M440,468c0,6.616-5.384,12-12,12H84c-6.616,0-12-5.384-12-12V20c0-6.616,5.384-12,12-12h344
			c6.616,0,12,5.384,12,12V468z"/>
	</g>
</g>
<g>
	<g>
		<path d="M256,0c-2.208,0-4,1.792-4,4v480c0,2.208,1.792,4,4,4s4-1.792,4-4V4C260,1.792,258.208,0,256,0z"/>
	</g>
</g>
<g>
	<g>
		<path d="M428,480c-2.208,0-4,1.792-4,4v20H88v-20c0-2.208-1.792-4-4-4s-4,1.792-4,4v24c0,2.208,1.792,4,4,4h344
			c2.208,0,4-1.792,4-4v-24C432,481.792,430.208,480,428,480z"/>
	</g>
</g>
<g>
	<g>
		<path d="M222,228c-7.72,0-14,6.28-14,14c0,7.72,6.28,14,14,14c7.72,0,14-6.28,14-14C236,234.28,229.72,228,222,228z M222,248
			c-3.308,0-6-2.692-6-6s2.692-6,6-6s6,2.692,6,6S225.308,248,222,248z"/>
	</g>
</g>
<g>
	<g>
		<path d="M290,228c-7.72,0-14,6.28-14,14c0,7.72,6.28,14,14,14c7.72,0,14-6.28,14-14C304,234.28,297.72,228,290,228z M290,248
			c-3.308,0-6-2.692-6-6s2.692-6,6-6c3.308,0,6,2.692,6,6S293.308,248,290,248z"/>
	</g>
</g>
<g>
	<g>
		<g>
			<path d="M88,328c-2.208,0-4,1.792-4,4v20c0,2.208,1.792,4,4,4s4-1.792,4-4v-20C92,329.792,90.208,328,88,328z"/>
			<path d="M88,372c-2.208,0-4,1.792-4,4v72c0,2.208,1.792,4,4,4s4-1.792,4-4v-72C92,373.792,90.208,372,88,372z"/>
			<path d="M424,20h-16c-2.208,0-4,1.792-4,4s1.792,4,4,4h12v52c0,2.208,1.792,4,4,4s4-1.792,4-4V24C428,21.792,426.208,20,424,20z"
				/>
			<path d="M392,20h-16c-2.208,0-4,1.792-4,4s1.792,4,4,4h16c2.208,0,4-1.792,4-4S394.208,20,392,20z"/>
		</g>
	</g>
</g>
</svg>