<?xml version="1.0" encoding="iso-8859-1"?>
<!-- Uploaded to: SVG Repo, www.svgrepo.com, Generator: SVG Repo Mixer Tools -->
<!DOCTYPE svg PUBLIC "-//W3C//DTD SVG 1.1//EN" "http://www.w3.org/Graphics/SVG/1.1/DTD/svg11.dtd">
<svg fill="#000000" height="800px" width="800px" version="1.1" id="Capa_1" xmlns="http://www.w3.org/2000/svg" xmlns:xlink="http://www.w3.org/1999/xlink" 
	 viewBox="0 0 437.899 437.899" xml:space="preserve">
<path d="M389.228,324.802h-1.666V30.553c6.419-1.937,11.11-7.899,11.11-14.942c0-8.608-7.003-15.611-15.61-15.611
	c-8.607,0-15.61,7.003-15.61,15.611c0,7.042,4.691,13.005,11.11,14.942v6.012h-78.897c-4.614-0.214-17.725-1.985-24.48-7.657
	c-13.66-11.469-32.107-13.982-55.529-14.071c-0.03,0-0.058-0.009-0.088-0.009c-0.208,0-0.409,0.004-0.617,0.004
	c-0.207,0-0.408-0.004-0.616-0.004c-0.03,0-0.058,0.008-0.088,0.009c-23.423,0.089-41.868,2.602-55.531,14.071
	c-7.861,6.601-23.25,7.588-24.494,7.657H59.336v-6.012c6.42-1.937,11.111-7.899,11.111-14.942C70.448,7.003,63.445,0,54.837,0
	s-15.61,7.003-15.61,15.611c0,7.042,4.691,13.004,11.109,14.941v294.249h-1.664c-10.584,0-18.875,12.348-18.875,28.11v80.487
	c0,2.485,2.015,4.5,4.5,4.5c2.485,0,4.5-2.015,4.5-4.5v-18.758h360.305v18.758c0,2.485,2.015,4.5,4.5,4.5c2.485,0,4.5-2.015,4.5-4.5
	v-80.487C408.102,337.149,399.812,324.802,389.228,324.802z M389.228,333.802c4.67,0,9.874,7.848,9.874,19.11v34.959h-11.54v-54.069
	H389.228z M59.336,387.871V104.023h78.396c-3.379,2.064-6.241,5.581-6.989,10.972l-43.798,23.746
	c-2.093,0.975-15.563,8.002-16.045,27.418c-0.148,5.961,1.933,28.418,2.021,29.371c0.125,1.35,0.852,2.57,1.979,3.324
	c1.126,0.754,2.533,0.96,3.826,0.561l11.267-3.47v69.399c0,1.486,0.734,2.877,1.961,3.715c0.539,0.368,13.529,9.012,43.005,9.012
	c29.478,0,42.466-8.645,43.004-9.012c1.227-0.839,1.961-2.229,1.961-3.715v-69.4l11.269,3.47c1.292,0.397,2.699,0.193,3.827-0.561
	c1.126-0.753,1.852-1.974,1.977-3.323c0.089-0.953,2.168-23.41,2.021-29.371c-0.482-19.416-13.951-26.443-16.044-27.418
	l-43.137-23.383c1.025-4.094,4.583-4.686,6.222-4.724c2.485,0,4.5-2.015,4.5-4.5v-2.11h106.878
	c-3.379,2.064-6.241,5.581-6.989,10.972l-43.938,23.82c-1.811,0.981-2.724,3.066-2.218,5.063c0.507,1.996,2.303,3.394,4.362,3.394
	h9.116v153.464c0,2.485,2.015,4.5,4.5,4.5h34.145c-1.645,12.928-2.636,27.845-2.636,45.04c0,2.485,2.015,4.5,4.5,4.5h54.061h54.063
	c2.485,0,4.5-2.015,4.5-4.5c0-80.095-21.462-110.89-30.652-120.404c20.581-22.359,17.341-54.431,17.185-55.855
	c-0.251-2.282-2.179-4.009-4.474-4.009c-5.481,0-6.802-3.5-7.101-4.852v-17.884h12.488c2.059,0,3.855-1.398,4.362-3.394
	c0.506-1.996-0.407-4.081-2.218-5.063l-43.273-23.458c1.025-4.094,4.583-4.686,6.221-4.724c2.485,0,4.5-2.015,4.5-4.5v-2.11h50.618
	v283.848H59.336z M378.562,95.023h-50.651c-0.344-7.704-6.7-13.87-14.487-13.87c-7.786,0-14.143,6.166-14.486,13.87h-28.706
	c-0.344-7.704-6.7-13.87-14.486-13.87c-7.786,0-14.143,6.166-14.486,13.87h-90.732c-0.344-7.704-6.7-13.87-14.486-13.87
	c-7.786,0-14.143,6.166-14.486,13.87H59.336V75.766h319.226V95.023z M331.177,233.765c0.303,0.211,29.751,21.777,30.704,112.01
	h-49.539h-49.537c0.953-90.233,30.4-111.799,30.664-111.984c1.152-0.767,1.889-2.021,1.994-3.401c0.106-1.38-0.429-2.733-1.45-3.667
	c-16.879-15.427-18.161-39.226-17.994-48.168c8.07-1.801,11.226-8.552,11.76-12.371c0.028-0.207,0.043-1.401,0.043-1.401
	c5.204,5.688,13.052,9.953,24.52,9.953c11.468,0,19.316-4.265,24.521-9.952c0,0,0.015,1.194,0.044,1.401
	c0.534,3.821,3.692,10.574,11.769,12.372c0.186,8.933-1.059,32.682-18.002,48.167c-1.009,0.923-1.524,2.268-1.435,3.633
	C329.33,231.72,330.055,232.983,331.177,233.765z M226.399,138.271l28.264-15.323l19.398,10.516l-8.867,4.807H226.399z
	 M226.772,147.271h52.05v17.866c-0.323,1.432-1.667,4.869-7.1,4.869c-2.296,0-4.223,1.728-4.474,4.009
	c-0.155,1.425-3.395,33.496,17.186,55.855c-6.742,6.979-20.089,25.414-26.721,66.364h-30.941V147.271z M333.162,154.579
	c-4.198,7.403-11.202,11.157-20.819,11.157c-9.616,0-16.621-3.753-20.818-11.157c-1.456-2.567-2.347-5.178-2.889-7.307h47.414
	C335.507,149.402,334.617,152.012,333.162,154.579z M301.811,138.271l-8.866-4.807l19.397-10.516l28.266,15.323H301.811z
	 M308.128,114.996l-24.626,13.351l-23.959-12.989c1.025-4.094,4.583-4.686,6.221-4.724c2.485,0,4.5-2.015,4.5-4.5v-2.11h44.854
	C311.739,106.087,308.876,109.604,308.128,114.996z M250.267,95.023c0.323-2.738,2.654-4.87,5.478-4.87
	c2.823,0,5.154,2.132,5.478,4.87H250.267z M307.946,95.023c0.323-2.738,2.654-4.87,5.478-4.87c2.823,0,5.155,2.132,5.478,4.87
	H307.946z M141.518,95.023h-10.955c0.323-2.738,2.654-4.87,5.478-4.87C138.864,90.153,141.195,92.285,141.518,95.023z
	 M179.173,146.898c0.429,0.191,10.485,4.85,10.848,19.484c0.088,3.523-0.812,14.939-1.49,22.795l-11.782-3.628
	c-1.365-0.42-2.848-0.169-3.997,0.681c-1.15,0.849-1.827,2.192-1.827,3.62v72.823c-4.31,2.062-15.777,6.399-35.965,6.399
	c-20.208,0-31.679-4.346-35.966-6.396V189.85c0-1.428-0.678-2.771-1.827-3.62c-1.149-0.849-2.635-1.101-3.997-0.681l-11.779,3.628
	c-0.68-7.855-1.579-19.271-1.491-22.795c0.362-14.634,10.42-19.292,10.81-19.467c0.133-0.056,11.901-6.429,11.901-6.429
	c0.604,4.023,2.154,8.922,5.833,13.229c5.645,6.607,14.566,9.958,26.517,9.958c11.95,0,20.872-3.35,26.518-9.958
	c3.678-4.306,5.229-9.203,5.834-13.227C167.311,140.487,179.075,146.854,179.173,146.898z M155.096,147.271
	c-0.153,0.199-2.775,7.4-20.137,7.4c-17.361,0-19.967-7.18-20.136-7.4H155.096z M158.66,135.798
	c0.001,0.697-0.036,1.542-0.138,2.474H111.4c-0.102-0.934-0.139-1.779-0.138-2.477l23.694-12.846L158.66,135.798z M376.452,15.611
	c0-3.646,2.966-6.611,6.61-6.611s6.61,2.966,6.61,6.611c0,3.645-2.966,6.609-6.61,6.609S376.452,19.256,376.452,15.611z
	 M361.579,45.565h16.983v21.2h-18.256c2.471-3.335,3.826-7.343,3.827-11.569C364.133,51.761,363.235,48.47,361.579,45.565z
	 M299.371,45.561c0.064,0.003,32.83,0.004,32.83,0.004c-0.816,1.803-1.261,3.769-1.261,5.807c0,3.769,1.467,7.311,4.132,9.976
	c1.758,1.757,4.606,1.757,6.364-0.001c1.757-1.758,1.757-4.607-0.001-6.364c-0.964-0.963-1.495-2.245-1.495-3.608
	c0.001-1.363,0.532-2.645,1.497-3.61c1.418-1.418,3.303-2.198,5.309-2.198c2.005,0,3.89,0.781,5.309,2.2
	c1.985,1.984,3.079,4.623,3.079,7.429c0,2.807-1.094,5.446-3.08,7.431c-2.342,2.341-6.884,3.884-12.158,4.14h-11.507
	c-9.622-0.37-29.469-2.773-39.583-15.786c-2.522-3.245-5.101-6.225-7.712-8.928C289.997,45.11,298.832,45.538,299.371,45.561z
	 M247.418,32.889c9.982,0,22.758,8.79,34.281,23.614c3.346,4.305,7.44,7.652,11.852,10.263h-36.908
	c3.565-5.009,3.444-11.461-0.578-15.822c-1.685-1.827-4.532-1.941-6.359-0.256c-1.826,1.686-1.94,4.532-0.256,6.359
	c1.573,1.705,0.391,4.09-0.787,5.277c-0.997,1.005-4.684,3.892-10.201-1.128c-7.23-6.576-8.632-14.257-3.846-21.073
	c3.33-4.742,7.385-7.107,12.395-7.229C247.147,32.891,247.283,32.889,247.418,32.889z M218.95,23.832
	c7.789,0.014,14.945,0.299,21.477,1.097c-5.145,1.585-9.628,4.97-13.175,10.021c-7.183,10.23-5.589,22.295,4.04,31.815h-24.684
	c9.629-9.521,11.222-21.585,4.039-31.815c-3.547-5.051-8.031-8.436-13.175-10.021C204.004,24.131,211.161,23.846,218.95,23.832z
	 M190.886,32.893c5.011,0.122,9.065,2.486,12.395,7.229c4.786,6.816,3.385,14.497-3.844,21.073
	c-5.522,5.021-9.206,2.132-10.203,1.127c-1.179-1.186-2.36-3.571-0.787-5.276c1.685-1.827,1.57-4.673-0.256-6.359
	c-1.827-1.684-4.675-1.569-6.359,0.256c-4.021,4.36-4.143,10.813-0.578,15.822h-36.917c4.415-2.61,8.514-5.955,11.862-10.263
	C167.88,41.476,180.853,32.668,190.886,32.893z M85.848,47.764c1.416-1.417,3.3-2.198,5.305-2.198c2.006,0,3.891,0.78,5.309,2.199
	c0.965,0.964,1.496,2.246,1.496,3.609c0.001,1.363-0.53,2.645-1.494,3.608c-1.758,1.757-1.758,4.606-0.001,6.364
	c1.757,1.757,4.605,1.758,6.364,0.001c2.665-2.665,4.132-6.207,4.131-9.976c0-2.038-0.443-4.004-1.26-5.807
	c0,0,32.766-0.001,32.83-0.004c0.538-0.023,9.38-0.451,18.284-3.512c-2.614,2.705-5.196,5.686-7.718,8.93
	c-10.112,13.01-29.958,15.415-39.582,15.786H98.004c-5.276-0.255-9.817-1.798-12.158-4.139c-1.985-1.985-3.079-4.625-3.079-7.431
	C82.766,52.389,83.86,49.75,85.848,47.764z M76.321,45.565c-1.656,2.905-2.555,6.196-2.554,9.631c0,4.226,1.355,8.235,3.827,11.569
	H59.336v-21.2H76.321z M48.227,15.611c0-3.646,2.966-6.611,6.61-6.611s6.61,2.966,6.61,6.611c0,3.645-2.966,6.609-6.61,6.609
	S48.227,19.256,48.227,15.611z M48.672,333.802h1.664v54.069H38.797v-34.959C38.797,341.65,44.001,333.802,48.672,333.802z
	 M38.797,405.642v-8.771h360.305v8.771H38.797z"/>
</svg>