<?xml version="1.0" ?><svg viewBox="0 0 88 88" xmlns="http://www.w3.org/2000/svg"><title/><g data-name="Image Selection crop" id="Image_Selection_crop"><path d="M86,69H75V26a9.0136,9.0136,0,0,0-9-9H15V6a1,1,0,0,0-2,0V17H2a1,1,0,0,0,0,2H13V62a9.0136,9.0136,0,0,0,9,9H73V82a1,1,0,0,0,2,0V71H86a1,1,0,0,0,0-2ZM59.42,69,30.71,40.29a1.008,1.008,0,0,0-1.42,0L15,54.58V19H66a7.0077,7.0077,0,0,1,7,7v8.58l-5.29-5.29a1.008,1.008,0,0,0-1.42,0L44.414,51.166,62.248,69Z"/><circle cx="44" cy="35" r="6"/></g></svg>