<?xml version="1.0" encoding="UTF-8"?> <svg xmlns="http://www.w3.org/2000/svg" width="512" height="512" viewBox="0 0 512 512" fill="none"><g clip-path="url(#clip0)"><path opacity="0.4" d="M506.274 417L292.95 53C276.618 25 235.397 25 218.954 53L5.7408 417C-10.5912 444.891 9.85181 480 42.7408 480H469.276C502.051 480 522.606 445 506.274 417ZM232.001 168C232.001 154.75 242.751 144 256.001 144C269.251 144 280.001 154.75 280.001 168V296C280.001 309.25 269.251 320 256.001 320C242.751 320 232.001 309.25 232.001 296V168ZM256.001 416C238.637 416 224.563 401.924 224.563 384.561C224.563 367.199 238.637 353.123 256.001 353.123C273.365 353.123 287.438 367.199 287.438 384.561C287.438 401.924 273.364 416 256.001 416Z" fill="#912036"></path><path d="M256.438 320C269.688 320 280.438 309.25 280.438 296V168C280.438 154.75 269.688 144 256.438 144C243.188 144 232.438 154.75 232.438 168V296C232.438 309.25 243.188 320 256.438 320ZM256.438 353.123C239.074 353.123 225 367.199 225 384.561C225 401.924 239.074 416 256.438 416C273.802 416 287.875 401.924 287.875 384.561C287.875 367.199 273.801 353.123 256.438 353.123Z" fill="#912036"></path></g><defs><clipPath id="clip0"><rect width="512" height="512" fill="white"></rect></clipPath></defs></svg> 