<?xml version="1.0" encoding="utf-8"?>
<!-- Uploaded to: SVG Repo, www.svgrepo.com, Generator: SVG Repo Mixer Tools -->
<svg fill="#000000" width="800px" height="800px" viewBox="0 0 32 32" version="1.1" xmlns="http://www.w3.org/2000/svg">
<title>user</title>
<path d="M16 16.75c4.28 0 7.75-3.47 7.75-7.75s-3.47-7.75-7.75-7.75c-4.28 0-7.75 3.47-7.75 7.75v0c0.005 4.278 3.472 7.745 7.75 7.75h0zM16 2.75c3.452 0 6.25 2.798 6.25 6.25s-2.798 6.25-6.25 6.25c-3.452 0-6.25-2.798-6.25-6.25v0c0.004-3.45 2.8-6.246 6.25-6.25h0zM30.41 29.84c-1.503-6.677-7.383-11.59-14.41-11.59s-12.907 4.913-14.391 11.491l-0.019 0.099c-0.011 0.048-0.017 0.103-0.017 0.16 0 0.414 0.336 0.75 0.75 0.75 0.357 0 0.656-0.25 0.731-0.585l0.001-0.005c1.351-5.998 6.633-10.41 12.945-10.41s11.594 4.413 12.929 10.322l0.017 0.089c0.076 0.34 0.374 0.59 0.732 0.59 0 0 0.001 0 0.001 0h-0c0.057-0 0.112-0.007 0.165-0.019l-0.005 0.001c0.34-0.076 0.59-0.375 0.59-0.733 0-0.057-0.006-0.112-0.018-0.165l0.001 0.005z"></path>
</svg>